<svg width="24" height="24" viewBox="0 0 24 24" fill="none" xmlns="http://www.w3.org/2000/svg">
<path fill-rule="evenodd" clip-rule="evenodd" d="M4.88257 2.91669C4.88257 2.3644 5.33028 1.91669 5.88257 1.91669H18.5492C19.1015 1.91669 19.5492 2.3644 19.5492 2.91669L19.5492 14.9938C19.5492 15.2773 19.4289 15.5475 19.2182 15.7371L12.8347 21.4815C12.4545 21.8237 11.8774 21.8238 11.4971 21.4817L5.21381 15.8298C5.00298 15.6401 4.88258 15.3699 4.88258 15.0863L4.88257 2.91669Z" fill="white"/>
<circle cx="12.2159" cy="6.66669" r="2" fill="#002159"/>
<path d="M9.21588 12.6667C9.21588 11.0098 10.559 9.66669 12.2159 9.66669V9.66669C13.8727 9.66669 15.2159 11.0098 15.2159 12.6667V14.6667C15.2159 15.219 14.7682 15.6667 14.2159 15.6667H10.2159C9.6636 15.6667 9.21588 15.219 9.21588 14.6667V12.6667Z" fill="#002159"/>
</svg>
