<svg width="24" height="24" viewBox="0 0 24 24" fill="none" xmlns="http://www.w3.org/2000/svg">
<g clip-path="url(#clip0_906_328)">
<rect x="2" y="4" width="20" height="11.25" rx="2" fill="white"/>
<path d="M7.625 18C7.07272 18 6.625 18.4477 6.625 19C6.625 19.5523 7.07272 20 7.625 20V18ZM16.375 20C16.9273 20 17.375 19.5523 17.375 19C17.375 18.4477 16.9273 18 16.375 18V20ZM11 15.25V19H13V15.25H11ZM7.625 20H12V18H7.625V20ZM16.375 18H12V20H16.375V18Z" fill="white"/>
<path d="M7 7L10 9.5L7 12" stroke="#002159" stroke-width="1.5" stroke-linecap="round" stroke-linejoin="round"/>
<line x1="12.75" y1="12.125" x2="17.25" y2="12.125" stroke="#002159" stroke-width="1.5" stroke-linecap="round"/>
</g>
<defs>
<clipPath id="clip0_906_328">
<rect width="22" height="22" fill="white" transform="translate(1 1)"/>
</clipPath>
</defs>
</svg>
