<svg width="24" height="24" viewBox="0 0 24 24" fill="none" xmlns="http://www.w3.org/2000/svg">
<g clip-path="url(#clip0_906_315)">
<circle cx="12" cy="12" r="11" fill="white"/>
<path d="M20 12C20 16.4183 16.4183 20 12 20C7.58172 20 4 16.4183 4 12C4 7.58172 7.58172 4 12 4C16.4183 4 20 7.58172 20 12Z" stroke="#002159" stroke-width="2"/>
<path d="M15 13.5926C15 14.7725 14.3539 15.5873 13 15.8095V17H11V15.8095C9.61236 15.5767 9.10674 14.746 9 13.3651L10.6685 13.127C10.7697 14.2222 11.2079 14.6614 12.1461 14.6614C12.8596 14.6614 13.3034 14.3598 13.3034 13.8201C13.3034 13.3175 12.9438 13.0899 11.9944 12.7778L11.0562 12.4762C10.0787 12.1481 9.18539 11.6667 9.19663 10.3598C9.20225 9.19048 9.75843 8.45503 11 8.24339V7H13V8.25397C14.2809 8.48677 14.7022 9.29101 14.7753 10.545L13.2135 10.7619C13.1685 9.83598 12.764 9.39153 11.8989 9.39153C11.2584 9.39153 10.8258 9.69312 10.8258 10.1534C10.8258 10.6085 11.073 10.836 12.1067 11.1799L13.0506 11.4921C14.0112 11.8095 15 12.2063 15 13.5926Z" fill="#002159"/>
</g>
<defs>
<clipPath id="clip0_906_315">
<rect width="22" height="22" fill="white" transform="translate(1 1)"/>
</clipPath>
</defs>
</svg>
